<svg width="63" height="54" viewBox="0 0 63 54" fill="none" xmlns="http://www.w3.org/2000/svg">
<path d="M13.824 0.0781746C13.8717 0.205399 13.665 0.229256 13.4901 0.117935C13.4423 0.0861282 13.3787 0.0940781 13.3469 0.133835C13.3231 0.181545 13.2515 0.197449 13.1879 0.165642C13.0925 0.133835 13.0766 0.189499 13.0925 0.451897C13.1084 0.634781 13.0845 0.777908 13.0448 0.777908C13.005 0.777908 13.005 0.825619 13.0607 0.881279C13.1243 0.960793 13.1163 1.01645 13.0527 1.08007C12.9971 1.13573 12.9891 1.17548 13.0368 1.17548C13.0766 1.17548 13.1084 1.46174 13.1084 1.81161C13.1084 2.16147 13.0766 2.44773 13.0368 2.44773C12.9971 2.44773 13.005 2.49543 13.0607 2.5511C13.1243 2.63061 13.1163 2.68627 13.0527 2.74989C12.9812 2.82145 12.9812 2.8453 13.0607 2.8453C13.1481 2.8453 13.1481 2.86916 13.0686 2.96457C12.9891 3.05999 12.9891 3.08385 13.0686 3.08385C13.1481 3.08385 13.1481 3.1077 13.0686 3.20312C13.013 3.26673 12.9971 3.32239 13.0368 3.32239C13.1243 3.32239 13.1243 3.88695 13.0368 4.02213C13.005 4.07779 13.0209 4.11754 13.0766 4.11754C13.1402 4.11754 13.1402 4.14935 13.0686 4.23682C13.013 4.30043 12.9971 4.35609 13.0368 4.35609C13.1243 4.35609 13.1243 5.31822 13.0368 5.4534C13.005 5.50906 13.0209 5.54882 13.0766 5.54882C13.1402 5.54882 13.1402 5.58062 13.0686 5.66809C12.9891 5.76351 12.9891 5.78736 13.0686 5.78736C13.1481 5.78736 13.1481 5.81122 13.0686 5.90663C13.013 5.97025 12.9971 6.02591 13.0368 6.02591C13.0766 6.02591 13.1084 6.15313 13.1084 6.30421C13.1084 6.45529 13.0766 6.58251 13.0368 6.58251C12.9971 6.58251 13.013 6.63817 13.0686 6.70179C13.1481 6.7972 13.1481 6.82106 13.0686 6.82106C12.9891 6.82106 12.9891 6.84491 13.0686 6.94033C13.1481 7.03575 13.1481 7.0596 13.0686 7.0596C12.9891 7.0596 12.9891 7.08346 13.0686 7.17888C13.1481 7.27429 13.1481 7.29815 13.0686 7.29815C12.9891 7.29815 12.9891 7.322 13.0686 7.41742C13.1481 7.51284 13.1481 7.53669 13.0686 7.53669C12.9891 7.53669 12.9891 7.56055 13.0686 7.65597C13.1481 7.75138 13.1481 7.77524 13.0686 7.77524C13.005 7.77524 12.9971 7.80704 13.0448 7.87066C13.1243 7.98993 13.1243 8.8964 13.0368 9.03158C13.005 9.08724 13.0209 9.127 13.0766 9.127C13.1402 9.127 13.1481 9.1588 13.0766 9.23037C13.013 9.30988 13.0209 9.36554 13.0845 9.42915C13.1402 9.48481 13.1481 9.52457 13.1004 9.52457C13.0527 9.52457 13.013 9.58023 13.013 9.64384C13.013 9.70746 13.0527 9.76312 13.0925 9.76312C13.1322 9.76312 13.1322 9.81083 13.0766 9.86649C13.013 9.946 13.0209 10.0017 13.0845 10.0653C13.1561 10.1368 13.1561 10.1607 13.0845 10.1607C13.013 10.1607 13.005 10.2084 13.0448 10.2959C13.1243 10.4708 13.1163 11.4488 13.0368 11.5761C13.005 11.6317 13.0209 11.6715 13.0766 11.6715C13.1402 11.6715 13.1481 11.7033 13.0766 11.7749C13.013 11.8544 13.0209 11.91 13.0845 11.9736C13.1402 12.0293 13.1481 12.0691 13.1004 12.0691C13.0527 12.0691 13.013 12.1247 13.013 12.1883C13.013 12.2519 13.0527 12.3076 13.0925 12.3076C13.1322 12.3076 13.1322 12.3553 13.0766 12.411C13.013 12.4905 13.0209 12.5461 13.0845 12.6098C13.1561 12.6813 13.1561 12.7052 13.0766 12.7052C13.0209 12.7052 13.005 12.7449 13.0368 12.7926C13.1163 12.9278 13.1243 13.2697 13.0527 13.4765C13.0209 13.5798 13.0289 13.6753 13.0766 13.7071C13.1243 13.7389 13.1243 13.7945 13.0607 13.8661C13.013 13.9297 12.9971 13.9774 13.0368 13.9774C13.0766 13.9774 13.1084 14.3193 13.1084 14.7328C13.1084 15.1463 13.0766 15.4882 13.0368 15.4882C12.9971 15.4882 13.013 15.5439 13.0686 15.6075C13.1481 15.7029 13.1481 15.7268 13.0686 15.7268C12.9971 15.7268 12.9891 15.7506 13.0607 15.8301C13.1243 15.9096 13.1163 15.9653 13.0527 16.0289C12.9812 16.1005 12.9812 16.1243 13.0607 16.1243C13.1481 16.1243 13.1481 16.1482 13.0686 16.2436C12.9891 16.339 12.9891 16.3629 13.0686 16.3629C13.1481 16.3629 13.1481 16.3867 13.0686 16.4821C13.013 16.5458 13.005 16.6014 13.0448 16.6014C13.0845 16.6014 13.1163 16.673 13.1163 16.7604C13.1163 16.8479 13.0845 16.9195 13.0448 16.9195C13.005 16.9195 13.013 16.9751 13.0686 17.0388C13.1481 17.1342 13.1481 17.158 13.0686 17.158C12.9891 17.158 12.9891 17.1819 13.0686 17.2773C13.1481 17.3727 13.1481 17.3966 13.0686 17.3966C12.9971 17.3966 12.9891 17.4204 13.0607 17.4999C13.1243 17.5795 13.1163 17.6351 13.0527 17.6987C12.9971 17.7544 12.9891 17.7941 13.0289 17.7941C13.0766 17.7941 13.1084 18.1281 13.1084 18.5495C13.1084 18.963 13.0766 19.3049 13.0368 19.3049C12.9971 19.3049 13.013 19.3606 13.0686 19.4242C13.1481 19.5196 13.1481 19.5435 13.0686 19.5435C12.9971 19.5435 12.9891 19.5673 13.0607 19.6468C13.1243 19.7264 13.1163 19.782 13.0527 19.8456C12.9812 19.9172 12.9812 19.9411 13.0607 19.9411C13.1481 19.9411 13.1481 19.9649 13.0686 20.0603C12.9891 20.1557 12.9891 20.1796 13.0686 20.1796C13.1481 20.1796 13.1481 20.2035 13.0686 20.2989C13.013 20.3625 13.005 20.4181 13.0448 20.4181C13.0845 20.4181 13.1163 20.4897 13.1163 20.5772C13.1163 20.6646 13.0845 20.7362 13.0448 20.7362C13.005 20.7362 13.013 20.7919 13.0686 20.8555C13.1481 20.9509 13.1481 20.9747 13.0686 20.9747C12.9891 20.9747 12.9891 20.9986 13.0686 21.094C13.1481 21.1894 13.1481 21.2133 13.0686 21.2133C12.9971 21.2133 12.9891 21.2371 13.0607 21.3167C13.1243 21.3962 13.1163 21.4518 13.0527 21.5155C12.9971 21.5711 12.9891 21.6109 13.0289 21.6109C13.0766 21.6109 13.1084 21.9846 13.1084 22.4855C13.1084 22.9626 13.0766 23.3602 13.0448 23.3602C13.005 23.3602 13.005 23.4079 13.0448 23.4556C13.1243 23.5908 13.1243 24.0758 13.0448 24.2508C13.005 24.3462 13.0209 24.3939 13.0845 24.3939C13.1561 24.3939 13.1561 24.4178 13.0845 24.4893C13.0209 24.5529 13.013 24.6086 13.0766 24.6881C13.1322 24.7438 13.1322 24.7915 13.0925 24.7915C13.0527 24.7915 13.013 24.8471 13.013 24.9107C13.013 24.9744 13.0527 25.03 13.0925 25.03C13.1322 25.03 13.1322 25.0777 13.0766 25.1334C13.013 25.2129 13.0209 25.2686 13.0845 25.3322C13.1561 25.4037 13.1561 25.4276 13.0845 25.4276C13.013 25.4276 13.005 25.4753 13.0448 25.5628C13.1243 25.7377 13.1163 26.7157 13.0368 26.843C13.005 26.8986 13.0209 26.9384 13.0766 26.9384C13.1402 26.9384 13.1481 26.9702 13.0766 27.0418C13.013 27.1213 13.0209 27.1769 13.0845 27.2405C13.1402 27.2962 13.1481 27.336 13.1004 27.336C13.0527 27.336 13.013 27.3916 13.013 27.4552C13.013 27.5188 13.0527 27.5745 13.1004 27.5745C13.1481 27.5745 13.1402 27.6143 13.0845 27.6699C13.0209 27.7335 13.013 27.7892 13.0766 27.8687C13.1481 27.9403 13.1402 27.9721 13.0766 27.9721C13.0209 27.9721 13.005 28.0118 13.0368 28.0595C13.1163 28.1947 13.1243 28.5366 13.0527 28.7434C13.0209 28.8467 13.0289 28.9422 13.0766 28.974C13.1322 29.0058 13.1243 29.0535 13.0686 29.125C13.005 29.2046 13.005 29.2443 13.0686 29.2841C13.1322 29.3238 13.1322 29.3715 13.0607 29.4511C12.9891 29.5385 12.9891 29.5624 13.0686 29.5624C13.1481 29.5624 13.1481 29.5862 13.0686 29.6817C13.013 29.7453 13.005 29.8009 13.0448 29.8009C13.0845 29.8009 13.1163 29.8725 13.1163 29.96C13.1163 30.0474 13.0766 30.119 13.0368 30.119C12.9891 30.119 12.9971 30.1587 13.0448 30.2065C13.0925 30.2542 13.1163 30.3416 13.0925 30.3973C13.0527 30.5166 13.331 30.6994 13.4185 30.612C13.4503 30.5881 13.506 30.612 13.5457 30.6756C13.6093 30.771 13.6252 30.771 13.6252 30.6835C13.6252 30.5961 13.6491 30.5961 13.7604 30.6835C13.832 30.7472 13.8717 30.7551 13.8399 30.7074C13.8081 30.6517 13.8558 30.612 13.983 30.612C14.0944 30.612 14.158 30.6517 14.1341 30.6915C14.1023 30.7392 14.158 30.7313 14.2454 30.6835C14.4601 30.5722 14.5237 30.5722 14.4522 30.6915C14.4124 30.7472 14.4283 30.7551 14.5078 30.7074C14.6669 30.612 15.136 30.612 15.136 30.7074C15.136 30.7631 15.1599 30.771 15.1996 30.7154C15.2712 30.612 16.0186 30.5961 15.955 30.6994C15.9232 30.7472 15.9471 30.7551 16.0186 30.7074C16.1777 30.612 16.8138 30.604 16.7502 30.6994C16.7184 30.7472 16.7422 30.7551 16.8138 30.7074C16.9808 30.604 17.1239 30.5961 17.1239 30.6994C17.1239 30.7631 17.1477 30.771 17.1875 30.7074C17.2591 30.604 17.8236 30.5881 17.8872 30.6835C17.9111 30.7233 17.9747 30.7313 18.0224 30.6994C18.1814 30.604 18.3166 30.604 18.3166 30.6994C18.3166 30.7631 18.3405 30.7631 18.3802 30.7154C18.4597 30.604 18.8732 30.5961 18.8732 30.7074C18.8732 30.7551 18.905 30.7472 18.9448 30.6915C19.0323 30.5563 19.1118 30.5563 19.1992 30.6915C19.239 30.7472 19.2708 30.7551 19.2708 30.7074C19.2708 30.6597 19.398 30.6199 19.5491 30.6199C19.724 30.6199 19.8036 30.6517 19.7717 30.7074C19.7399 30.7551 19.7797 30.7472 19.8513 30.6835C19.9546 30.604 20.0103 30.5961 20.0898 30.6676C20.1693 30.7313 20.225 30.7233 20.2965 30.6517C20.3681 30.5802 20.4079 30.5802 20.4635 30.6756C20.5033 30.7392 20.543 30.7551 20.543 30.7154C20.543 30.6676 20.6146 30.6279 20.7021 30.6199C20.8054 30.612 20.8452 30.6358 20.8054 30.6994C20.7736 30.7631 20.7975 30.7631 20.877 30.6915C20.9724 30.6199 21.0201 30.612 21.0599 30.6756C21.0917 30.7313 21.1474 30.7392 21.203 30.6915C21.3302 30.5881 21.6006 30.604 21.6722 30.7074C21.7119 30.7631 21.7358 30.7551 21.7358 30.6835C21.7358 30.5881 21.7596 30.5961 21.8789 30.6915C21.9505 30.7631 22.0777 30.8028 22.1572 30.7949C22.2288 30.779 22.2924 30.8028 22.2924 30.8426C22.2924 30.8823 22.7138 31.3276 23.2307 31.8445C23.7395 32.3534 24.153 32.7986 24.1451 32.8384C24.1292 32.8702 24.161 32.8941 24.2166 32.8782C24.2643 32.8702 24.3518 32.9497 24.4154 33.061C24.4711 33.1724 24.5188 33.228 24.5188 33.1962C24.5188 33.1644 24.6381 33.2519 24.7891 33.395C24.9323 33.5381 25.0356 33.6813 25.0197 33.7131C25.0038 33.7528 25.0277 33.7767 25.0754 33.7767C25.1947 33.7767 26.0375 34.6195 25.9739 34.6832C25.9501 34.707 25.9739 34.7309 26.0375 34.7309C26.1011 34.7309 26.2522 34.8581 26.3874 35.0092C26.5146 35.1602 26.6816 35.2875 26.7452 35.2954C26.8247 35.2954 26.8327 35.3113 26.7611 35.3431C26.7134 35.359 26.6657 35.4147 26.6657 35.4545C26.6657 35.5022 26.6975 35.5181 26.7293 35.4942C26.8406 35.4306 27.1507 35.685 27.0951 35.7884C27.0633 35.8441 27.0633 35.86 27.103 35.8282C27.1905 35.7487 28.0254 36.5677 27.9618 36.6631C27.9379 36.7108 27.9539 36.7187 28.0016 36.6869C28.0493 36.6631 28.1367 36.7028 28.1924 36.7744C28.3037 36.9255 28.5423 37.0209 28.4548 36.8778C28.4071 36.8062 28.5184 36.7585 28.6854 36.7903C28.7251 36.7983 28.7331 36.7505 28.7092 36.6869C28.6695 36.5836 28.8524 36.4404 28.9875 36.4643C29.0273 36.4722 29.0432 36.4563 29.0432 36.4166C29.0194 36.2576 29.0671 36.1701 29.2022 36.1224C29.2897 36.0985 29.3851 36.0031 29.409 35.9156C29.4408 35.8361 29.4964 35.7805 29.5362 35.8043C29.576 35.8361 29.6078 35.8282 29.6078 35.7884C29.6078 35.693 30.4745 34.8104 30.5699 34.8104C30.6176 34.8104 30.6335 34.7786 30.6017 34.7388C30.5779 34.6991 30.6335 34.6434 30.721 34.6116C30.8084 34.5877 30.9198 34.4923 30.9675 34.4049C31.0072 34.3174 31.0867 34.2776 31.1345 34.3015C31.1822 34.3333 31.1981 34.3253 31.1663 34.2697C31.1424 34.222 31.1901 34.1345 31.2776 34.0709C31.365 34.0152 31.4128 33.9357 31.373 33.896C31.3412 33.8642 31.381 33.8562 31.4605 33.8801C31.54 33.9119 31.5877 33.9039 31.5638 33.8721C31.5082 33.7846 32.5896 32.7271 32.6611 32.7986C32.693 32.8384 32.7089 32.8066 32.693 32.743C32.677 32.6794 32.7168 32.6317 32.7725 32.6476C32.8361 32.6555 32.8599 32.6396 32.8361 32.5999C32.7804 32.5044 33.6153 31.6934 33.6948 31.765C33.7266 31.8047 33.7505 31.7888 33.7426 31.749C33.7028 31.5741 33.7505 31.5185 33.83 31.6298C33.9016 31.7331 33.9095 31.7331 33.8777 31.6218C33.83 31.4787 34.1958 31.0732 34.3628 31.0732C34.4184 31.0732 34.4502 31.0493 34.4423 31.0096C34.4184 30.8744 34.5616 30.6915 34.6649 30.7313C34.7285 30.7551 34.7762 30.7313 34.7762 30.6756C34.7762 30.5961 34.8001 30.5961 34.8876 30.6676C34.9671 30.7313 35.0148 30.7392 35.0546 30.6756C35.0784 30.6358 35.142 30.5961 35.1818 30.5961C35.2295 30.5961 35.2454 30.6279 35.2215 30.6676C35.1659 30.7551 35.3249 30.7392 35.476 30.6517C35.5316 30.612 35.5714 30.6279 35.5714 30.6915C35.5714 30.7631 35.5953 30.7631 35.635 30.7074C35.6668 30.6597 35.802 30.6279 35.9292 30.6279C36.0644 30.6279 36.1916 30.6597 36.2234 30.7074C36.2711 30.771 36.287 30.771 36.287 30.7074C36.287 30.604 36.9073 30.5881 36.9709 30.6915C36.9947 30.7313 37.0663 30.7154 37.1378 30.6676C37.2333 30.5881 37.2651 30.5881 37.3287 30.6835C37.3684 30.7472 37.4002 30.7551 37.4002 30.7154C37.4002 30.6676 37.4718 30.6279 37.5593 30.6199C37.6626 30.612 37.7024 30.6358 37.6706 30.6915C37.6308 30.7472 37.6547 30.7551 37.7183 30.7154C37.8773 30.612 38.2749 30.604 38.2749 30.7074C38.2749 30.7631 38.2988 30.771 38.3385 30.7154C38.4101 30.604 38.9269 30.5881 38.8554 30.6994C38.8236 30.7472 38.8474 30.7551 38.919 30.7074C39.078 30.612 39.7141 30.604 39.6505 30.6994C39.6187 30.7472 39.6426 30.7551 39.7141 30.7074C39.8811 30.604 40.0242 30.5961 40.0242 30.6994C40.0242 30.771 40.0401 30.771 40.0879 30.7074C40.1594 30.604 40.6604 30.5881 40.7955 30.6915C40.8512 30.7313 40.9069 30.7313 40.9387 30.6756C40.9625 30.6358 41.0261 30.5961 41.0659 30.5961C41.1136 30.5961 41.1216 30.6438 41.0897 30.6915C41.05 30.7551 41.0818 30.7551 41.1693 30.6835C41.2885 30.5802 41.3203 30.5802 41.384 30.6835C41.4396 30.771 41.4555 30.771 41.4555 30.6835C41.4555 30.5961 41.4794 30.5961 41.5907 30.6835C41.6623 30.7472 41.702 30.7551 41.6782 30.7154C41.6464 30.6597 41.8769 30.6279 42.3779 30.6279C42.847 30.6279 43.1253 30.6597 43.1253 30.7154C43.1253 30.7631 43.1492 30.7631 43.1889 30.7074C43.2208 30.6517 43.3321 30.6199 43.4434 30.6279C43.6104 30.6358 43.6342 30.604 43.6422 30.3575C43.6501 30.1985 43.6819 30.0236 43.7217 29.9679C43.7615 29.9043 43.7535 29.8725 43.7137 29.9043C43.674 29.9282 43.6422 29.5783 43.6422 29.0853C43.6422 28.5923 43.674 28.2424 43.7137 28.2742C43.7535 28.2981 43.7615 28.2742 43.7297 28.2186C43.6342 28.0675 43.6183 27.7335 43.7058 27.7892C43.7535 27.821 43.7615 27.7971 43.7217 27.7256C43.6263 27.5825 43.6263 26.7794 43.7137 26.835C43.7535 26.8668 43.7615 26.835 43.7217 26.7714C43.6263 26.6283 43.6183 26.1432 43.7058 26.1432C43.7376 26.1432 43.7456 26.0955 43.7137 26.0478C43.6263 25.9047 43.6263 23.1296 43.7137 23.1773C43.7535 23.2091 43.7615 23.1853 43.7297 23.1296C43.6342 22.9785 43.6183 22.6446 43.7058 22.7002C43.7535 22.732 43.7615 22.7082 43.7217 22.6366C43.6263 22.4935 43.6263 21.6904 43.7137 21.746C43.7535 21.7779 43.7615 21.746 43.7217 21.6824C43.6263 21.5393 43.6263 20.7362 43.7137 20.7919C43.7535 20.8237 43.7615 20.7919 43.7217 20.7283C43.6263 20.5851 43.6183 18.0327 43.7137 18.0884C43.7535 18.1202 43.7615 18.0963 43.7297 18.0406C43.6342 17.8896 43.6183 17.5556 43.7058 17.6113C43.7535 17.6431 43.7615 17.6192 43.7217 17.5476C43.6263 17.4045 43.6263 16.6014 43.7137 16.6571C43.7535 16.6889 43.7615 16.6571 43.7217 16.5935C43.6263 16.4503 43.6183 15.9653 43.7058 15.9653C43.7376 15.9653 43.7456 15.9176 43.7137 15.8699C43.6263 15.7268 43.6263 12.9517 43.7137 12.9994C43.7535 13.0312 43.7615 13.0073 43.7297 12.9517C43.6342 12.8006 43.6183 12.4666 43.7058 12.5223C43.7535 12.5541 43.7615 12.5302 43.7217 12.4587C43.6263 12.3156 43.6263 11.5124 43.7137 11.5681C43.7535 11.5999 43.7615 11.5681 43.7217 11.5045C43.6263 11.3614 43.6263 10.5583 43.7137 10.6139C43.7535 10.6457 43.7615 10.6139 43.7217 10.5503C43.6263 10.4072 43.6183 7.85476 43.7137 7.91042C43.7535 7.94222 43.7615 7.91837 43.7297 7.86271C43.6342 7.71163 43.6183 7.37766 43.7058 7.43332C43.7535 7.46513 43.7615 7.44128 43.7217 7.36971C43.6263 7.22659 43.6263 6.42348 43.7137 6.47914C43.7535 6.51095 43.7615 6.47914 43.7217 6.42348C43.6342 6.28036 43.6183 4.83318 43.7058 4.83318C43.7456 4.83318 43.7456 4.78547 43.7137 4.73776C43.6263 4.59464 43.6263 2.77374 43.7137 2.82145C43.7535 2.85325 43.7615 2.8294 43.7297 2.77374C43.6342 2.62266 43.6183 2.2887 43.7058 2.34436C43.7535 2.37616 43.7615 2.35231 43.7137 2.28075C43.6342 2.14557 43.6183 1.10392 43.6978 0.921036C43.7376 0.849472 43.7297 0.769958 43.6978 0.746101C43.6581 0.722248 43.6342 0.579121 43.6422 0.428043C43.6501 0.269012 43.6263 0.165642 43.5945 0.189499C43.5547 0.213352 43.5229 0.181545 43.5229 0.125885C43.5229 0.0622711 43.4991 0.0543213 43.4593 0.102032C43.3639 0.229256 43.1094 0.221302 43.1571 0.0940781C43.1969 -0.0092926 43.181 -0.0092926 43.0299 0.0940781C42.9106 0.181545 42.8232 0.189499 42.7119 0.133835C42.6164 0.0781746 42.5687 0.0861282 42.5687 0.141788C42.5687 0.189499 42.529 0.205399 42.4733 0.165642C42.3302 0.0861282 42.1712 0.0622711 42.1712 0.133835C42.1712 0.181545 41.9485 0.181545 41.4158 0.109982C41.3283 0.102032 41.1931 0.125885 41.1216 0.157692C41.0261 0.205399 40.9784 0.197449 40.9784 0.141788C40.9784 0.0861282 40.9307 0.0781746 40.8273 0.141788C40.724 0.189499 40.6524 0.197449 40.6206 0.141788C40.5888 0.0940781 40.5013 0.0940781 40.3821 0.141788C40.1912 0.213352 40.1515 0.189499 40.1753 0.030468C40.1833 -0.0092926 40.1356 0.00661087 40.064 0.0622711C39.9129 0.189499 39.5472 0.221302 39.5472 0.109982C39.5472 0.0622711 39.5074 0.0702248 39.4517 0.125885C39.3961 0.181545 39.3166 0.189499 39.2132 0.133835C39.1098 0.0781746 39.0701 0.0861282 39.0701 0.157692C39.0701 0.221302 39.0462 0.229256 39.0065 0.181545C38.9269 0.0702248 38.752 0.0463715 38.752 0.149738C38.752 0.213352 38.7202 0.221302 38.6486 0.149738C38.585 0.102032 38.5135 0.0861282 38.4896 0.117935C38.4101 0.189499 37.9569 0.189499 37.9569 0.117935C37.9569 0.0781746 37.9091 0.0781746 37.8614 0.109982C37.7183 0.197449 37.4798 0.205399 37.4321 0.125885C37.4082 0.0940781 37.3525 0.0781746 37.3128 0.109982C37.1856 0.189499 36.6846 0.189499 36.6846 0.109982C36.6846 0.0781746 36.621 0.0940781 36.5494 0.149738C36.4302 0.245159 36.4222 0.245159 36.4699 0.117935C36.5176 -0.0092926 36.5097 -0.0092926 36.3109 0.117935C36.1916 0.197449 36.1201 0.213352 36.1519 0.157692C36.2314 0.0384178 36.1996 0.0384178 35.9372 0.141788C35.7861 0.197449 35.7304 0.189499 35.7304 0.125885C35.7304 0.0543213 35.7066 0.0543213 35.635 0.125885C35.5794 0.181545 35.4998 0.189499 35.3965 0.133835C35.2931 0.0781746 35.2533 0.0861282 35.2533 0.157692C35.2533 0.221302 35.2295 0.229256 35.1897 0.181545C35.1102 0.0702248 34.9353 0.0463715 34.9353 0.149738C34.9353 0.197449 34.8955 0.205399 34.8399 0.165642C34.6888 0.0781746 34.5377 0.0702248 34.5377 0.149738C34.5377 0.197449 34.4979 0.205399 34.4582 0.181545C34.4105 0.149738 34.4025 0.0861282 34.4343 0.0384178C34.4582 -0.0172424 34.4105 0.00661087 34.323 0.0861282C34.2355 0.157692 34.1481 0.205399 34.1242 0.181545C34.0447 0.102032 33.6312 0.0861282 33.4881 0.157692C33.3927 0.205399 33.345 0.197449 33.345 0.141788C33.345 0.0861282 33.2973 0.0781746 33.1939 0.141788C33.0905 0.189499 33.019 0.197449 32.9872 0.141788C32.9554 0.0940781 32.8679 0.0940781 32.7486 0.141788C32.5578 0.213352 32.518 0.189499 32.5419 0.030468C32.5498 -0.0092926 32.5021 0.00661087 32.4306 0.0622711C32.2795 0.189499 31.9137 0.221302 31.9137 0.109982C31.9137 0.0622711 31.8739 0.0702248 31.8183 0.125885C31.7626 0.181545 31.6831 0.189499 31.5797 0.133835C31.4764 0.0781746 31.4366 0.0861282 31.4366 0.157692C31.4366 0.221302 31.4128 0.229256 31.373 0.181545C31.2935 0.0702248 31.1186 0.0463715 31.1186 0.149738C31.1186 0.213352 31.0867 0.221302 31.0152 0.149738C30.9516 0.102032 30.88 0.0861282 30.8562 0.117935C30.7766 0.189499 30.3234 0.189499 30.3234 0.117935C30.3234 0.0781746 30.2757 0.0781746 30.228 0.109982C30.0849 0.197449 29.8463 0.205399 29.7986 0.125885C29.7747 0.0940781 29.7191 0.0781746 29.6793 0.109982C29.5521 0.189499 29.0512 0.189499 29.0512 0.109982C29.0512 0.0781746 28.9875 0.0940781 28.916 0.149738C28.7967 0.245159 28.7888 0.245159 28.8365 0.117935C28.8842 -0.0092926 28.8762 -0.0092926 28.6774 0.117935C28.5582 0.197449 28.4866 0.213352 28.5184 0.157692C28.5979 0.0384178 28.5661 0.0384178 28.3037 0.141788C28.1526 0.197449 28.097 0.189499 28.097 0.125885C28.097 0.0543213 28.0731 0.0543213 28.0016 0.125885C27.9459 0.181545 27.8664 0.189499 27.763 0.133835C27.6596 0.0781746 27.6199 0.0861282 27.6199 0.157692C27.6199 0.221302 27.596 0.229256 27.5563 0.181545C27.4768 0.0702248 27.3018 0.0463715 27.3018 0.149738C27.3018 0.197449 27.2621 0.205399 27.2064 0.165642C27.0553 0.0781746 26.9043 0.0702248 26.9043 0.149738C26.9043 0.197449 26.8645 0.205399 26.8247 0.181545C26.777 0.149738 26.7691 0.0861282 26.8009 0.0384178C26.8247 -0.0172424 26.777 0.00661087 26.6896 0.0861282C26.6021 0.157692 26.5146 0.205399 26.4908 0.181545C26.4113 0.102032 25.9978 0.0861282 25.8547 0.157692C25.7592 0.205399 25.7115 0.197449 25.7115 0.141788C25.7115 0.0861282 25.6638 0.0781746 25.5604 0.141788C25.4571 0.189499 25.3855 0.197449 25.3537 0.141788C25.3219 0.0940781 25.2344 0.0940781 25.1152 0.141788C24.9243 0.213352 24.8846 0.189499 24.9084 0.030468C24.9164 -0.0092926 24.8687 0.00661087 24.7971 0.0622711C24.646 0.189499 24.2803 0.221302 24.2803 0.109982C24.2803 0.0622711 24.2405 0.0702248 24.1848 0.125885C24.1292 0.181545 24.0497 0.189499 23.9463 0.133835C23.8429 0.0781746 23.8032 0.0861282 23.8032 0.157692C23.8032 0.221302 23.7793 0.229256 23.7395 0.181545C23.66 0.0702248 23.4851 0.0463715 23.4851 0.149738C23.4851 0.213352 23.4533 0.221302 23.3817 0.149738C23.3181 0.102032 23.2466 0.0861282 23.2227 0.117935C23.1432 0.189499 22.6899 0.189499 22.6899 0.117935C22.6899 0.0781746 22.6422 0.0781746 22.5945 0.109982C22.4514 0.197449 22.2129 0.205399 22.1652 0.125885C22.1413 0.0940781 22.0856 0.0781746 22.0459 0.109982C21.9187 0.189499 21.4177 0.189499 21.4177 0.109982C21.4177 0.0781746 21.3541 0.0940781 21.2825 0.149738C21.1633 0.245159 21.1553 0.245159 21.203 0.117935C21.2507 -0.0092926 21.2428 -0.0092926 21.044 0.117935C20.9247 0.197449 20.8532 0.213352 20.885 0.157692C20.9645 0.0384178 20.9327 0.0384178 20.6703 0.141788C20.5192 0.197449 20.4635 0.189499 20.4635 0.125885C20.4635 0.0543213 20.4397 0.0543213 20.3681 0.125885C20.3124 0.181545 20.2329 0.189499 20.1296 0.133835C20.0262 0.0781746 19.9864 0.0861282 19.9864 0.157692C19.9864 0.221302 19.9626 0.229256 19.9228 0.181545C19.8433 0.0702248 19.6684 0.0463715 19.6684 0.149738C19.6684 0.197449 19.6286 0.205399 19.573 0.165642C19.4219 0.0781746 19.2708 0.0702248 19.2708 0.149738C19.2708 0.197449 19.231 0.205399 19.1913 0.181545C19.1436 0.149738 19.1356 0.0861282 19.1674 0.0384178C19.1913 -0.0172424 19.1436 0.00661087 19.0561 0.0861282C18.9686 0.157692 18.8812 0.205399 18.8573 0.181545C18.7778 0.102032 18.3643 0.0861282 18.2212 0.157692C18.1258 0.205399 18.0781 0.197449 18.0781 0.141788C18.0781 0.0861282 18.0304 0.0781746 17.927 0.141788C17.8236 0.189499 17.7521 0.197449 17.7203 0.141788C17.6884 0.0940781 17.601 0.0940781 17.4817 0.141788C17.2909 0.213352 17.2511 0.189499 17.275 0.030468C17.2829 -0.0092926 17.2352 0.00661087 17.1636 0.0622711C17.0126 0.189499 16.6468 0.221302 16.6468 0.109982C16.6468 0.0622711 16.607 0.0702248 16.5514 0.125885C16.4957 0.181545 16.4162 0.189499 16.3128 0.133835C16.2095 0.0781746 16.1697 0.0861282 16.1697 0.157692C16.1697 0.221302 16.1459 0.229256 16.1061 0.181545C16.0266 0.0702248 15.8517 0.0463715 15.8517 0.149738C15.8517 0.213352 15.8198 0.221302 15.7483 0.149738C15.6847 0.102032 15.6131 0.0861282 15.5813 0.117935C15.5018 0.205399 15.1042 0.189499 15.0326 0.102032C14.9849 0.0543213 14.9531 0.0622711 14.9213 0.125885C14.8895 0.205399 14.8577 0.205399 14.7702 0.133835C14.7066 0.0861282 14.6589 0.0702248 14.6589 0.109982C14.6589 0.149738 14.5556 0.181545 14.4204 0.181545C14.2932 0.181545 14.1818 0.149738 14.1818 0.117935C14.1818 0.0781746 14.1421 0.0781746 14.1023 0.102032C14.0546 0.133835 13.9592 0.109982 13.8956 0.0543213C13.8002 -0.0251923 13.7922 -0.0172424 13.824 0.0781746ZM17.8395 4.58668C17.8395 4.49922 17.8554 4.49922 17.919 4.59464C17.9827 4.69005 17.9986 4.69005 17.9986 4.60258C17.9986 4.52307 18.0224 4.51512 18.1099 4.58668C18.1973 4.65825 18.2371 4.65825 18.2769 4.58668C18.3246 4.52307 18.3564 4.53102 18.4041 4.60258C18.4597 4.69801 18.4756 4.69801 18.4756 4.60258C18.4756 4.52307 18.4995 4.51512 18.587 4.58668C18.6665 4.65825 18.7142 4.65825 18.754 4.59464C18.7937 4.53102 18.8414 4.53102 18.905 4.58668C18.9607 4.63439 19.0243 4.6503 19.0561 4.62644C19.1356 4.53897 19.5889 4.54692 19.5889 4.62644C19.5889 4.67415 19.6207 4.6662 19.6604 4.61054C19.6922 4.54692 19.7558 4.49922 19.7876 4.49922C19.8195 4.49922 19.8831 4.54692 19.9149 4.61054C19.9546 4.6662 19.9864 4.67415 19.9864 4.63439C19.9864 4.52307 21.0996 4.52307 21.0996 4.63439C21.0996 4.69005 21.1235 4.69005 21.1633 4.63439C21.1951 4.58668 21.2905 4.54692 21.378 4.54692C21.4654 4.54692 21.5608 4.58668 21.5926 4.63439C21.6324 4.6821 21.6563 4.67415 21.6563 4.60258C21.6563 4.52307 21.6801 4.51512 21.7596 4.58668C21.8232 4.63439 21.8948 4.6503 21.9266 4.61849C22.0141 4.52307 22.3719 4.53102 22.3719 4.62644C22.3719 4.67415 22.4037 4.6662 22.4435 4.60258C22.4912 4.53102 22.523 4.52307 22.5707 4.58668C22.6104 4.65825 22.6502 4.65825 22.7377 4.58668C22.8251 4.51512 22.849 4.52307 22.849 4.60258C22.849 4.69801 22.8649 4.69801 22.9205 4.61054C22.9523 4.54692 23.016 4.49922 23.0478 4.49922C23.0796 4.49922 23.1432 4.54692 23.175 4.61054C23.2307 4.69801 23.2466 4.69801 23.2466 4.60258C23.2466 4.52307 23.2704 4.51512 23.3579 4.58668C23.4374 4.65825 23.4851 4.65825 23.5249 4.59464C23.5646 4.53102 23.6123 4.53102 23.6759 4.58668C23.7316 4.63439 23.8032 4.6503 23.835 4.61849C23.9224 4.52307 24.5983 4.53897 24.5983 4.62644C24.5983 4.67415 24.6301 4.6662 24.6699 4.61054C24.7017 4.54692 24.7653 4.49922 24.7971 4.49922C24.8289 4.49922 24.8925 4.54692 24.9243 4.61054C24.98 4.69801 24.9959 4.69801 24.9959 4.60258C24.9959 4.52307 25.0197 4.51512 25.1072 4.58668C25.1788 4.6503 25.2344 4.6503 25.2662 4.60258C25.3219 4.52307 25.5604 4.54692 25.7274 4.64235C25.7831 4.67415 25.791 4.6662 25.7592 4.61054C25.7274 4.55488 25.7354 4.51512 25.7831 4.51512C25.8228 4.51512 25.8865 4.55488 25.9103 4.59464C25.9501 4.65825 25.9978 4.65825 26.0693 4.59464C26.1409 4.53102 26.1886 4.53102 26.2284 4.59464C26.2522 4.64235 26.3238 4.6503 26.3715 4.61849C26.5226 4.52307 27.1428 4.53897 27.1428 4.62644C27.1428 4.67415 27.1746 4.6662 27.2144 4.61054C27.2462 4.54692 27.3098 4.49922 27.3416 4.49922C27.3734 4.49922 27.437 4.54692 27.4688 4.61054C27.5245 4.69801 27.5404 4.69801 27.5404 4.60258C27.5404 4.52307 27.5642 4.51512 27.6437 4.58668C27.7074 4.63439 27.7789 4.6503 27.8107 4.61849C27.8982 4.52307 28.3276 4.53897 28.2719 4.63439C28.2481 4.67415 28.2799 4.6662 28.3514 4.61054C28.4468 4.53897 28.4946 4.53102 28.5343 4.59464C28.5741 4.65825 28.6218 4.65825 28.7013 4.58668C28.7888 4.51512 28.8126 4.52307 28.8126 4.60258C28.8126 4.69801 28.8285 4.69801 28.8842 4.61054C28.916 4.54692 28.9796 4.49922 29.0114 4.49922C29.0432 4.49922 29.1068 4.54692 29.1386 4.61054C29.1784 4.6662 29.2102 4.67415 29.2102 4.62644C29.2102 4.52307 29.6316 4.51512 29.7032 4.62644C29.7429 4.69005 29.7668 4.6821 29.7668 4.61849C29.7668 4.52307 29.902 4.52307 30.061 4.61849C30.1087 4.6503 30.1723 4.6503 30.1962 4.61054C30.2439 4.53102 30.88 4.53897 31.0152 4.61849C31.0629 4.6503 31.1265 4.6503 31.1504 4.61054C31.1981 4.53102 31.6752 4.53897 31.8183 4.61849C31.866 4.65825 31.9137 4.65825 31.9137 4.61849C31.9137 4.58668 32.0012 4.55488 32.1125 4.55488C32.2238 4.55488 32.3113 4.58668 32.3113 4.63439C32.3113 4.67415 32.3431 4.6662 32.3828 4.61054C32.4146 4.54692 32.4783 4.49922 32.5101 4.49922C32.5419 4.49922 32.6055 4.54692 32.6373 4.61054C32.677 4.6662 32.7089 4.67415 32.7089 4.63439C32.7089 4.53897 33.5358 4.52307 33.6312 4.61849C33.663 4.6503 33.7346 4.63439 33.7982 4.58668C33.8777 4.51512 33.9016 4.52307 33.9016 4.60258C33.9016 4.69801 33.9175 4.69801 33.9731 4.61054C34.005 4.54692 34.0686 4.49922 34.1004 4.49922C34.1322 4.49922 34.1958 4.54692 34.2276 4.61054C34.2674 4.6662 34.2992 4.67415 34.2992 4.62644C34.2992 4.52307 34.7206 4.51512 34.7922 4.62644C34.8319 4.69005 34.8558 4.6821 34.8558 4.61849C34.8558 4.52307 35.0466 4.52307 35.142 4.61849C35.1738 4.64235 35.2374 4.64235 35.2851 4.61054C35.4283 4.52307 37.3923 4.53897 37.3446 4.63439C37.3207 4.67415 37.3446 4.6662 37.4002 4.61849C37.4877 4.53897 37.5354 4.53897 37.6308 4.61849C37.7024 4.67415 37.7263 4.6821 37.6945 4.62644C37.6308 4.51512 37.9728 4.52307 38.0523 4.63439C38.092 4.69005 38.1159 4.6821 38.1159 4.62644C38.1159 4.53897 38.6327 4.52307 38.7202 4.61849C38.8077 4.69801 38.9269 4.69005 38.8792 4.60258C38.8156 4.49922 38.9985 4.53897 39.1893 4.6662L39.3484 4.76957L39.1893 4.71391C39.0621 4.67415 39.0462 4.6821 39.1337 4.76162C39.2609 4.89679 39.2609 5.38979 39.1337 5.38979C39.0542 5.38979 39.0542 5.40569 39.1257 5.4534C39.2768 5.54882 39.3007 6.98804 39.1496 7.12321C39.086 7.18683 39.0701 7.21068 39.1178 7.18683C39.1734 7.16297 39.2291 7.22659 39.2529 7.34586C39.2768 7.49694 39.2609 7.53669 39.1655 7.49694C39.0701 7.46513 39.0701 7.47308 39.1416 7.5685C39.1973 7.64006 39.2291 7.98993 39.2211 8.57039C39.2211 9.05543 39.237 9.47686 39.2609 9.50072C39.2848 9.52457 39.245 9.59614 39.1655 9.65975C39.0939 9.72336 39.0701 9.75517 39.1178 9.73131C39.1734 9.70746 39.2291 9.77107 39.2529 9.89034C39.2768 10.0494 39.2609 10.0812 39.1575 10.0414C39.0542 10.0017 39.0462 10.0096 39.1337 10.0891C39.1893 10.1527 39.2291 10.3992 39.2291 10.7014C39.2291 11.0831 39.2052 11.1864 39.1337 11.1467C39.0542 11.099 39.0542 11.1149 39.1178 11.2023C39.2132 11.3216 39.3086 11.8305 39.237 11.8305C39.1734 11.8305 39.1973 12.9119 39.2609 13.0153C39.2927 13.055 39.2768 13.1107 39.245 13.1346C39.2052 13.1584 39.1973 13.3413 39.2291 13.5401C39.2768 13.8581 39.2689 13.8979 39.1575 13.8581C39.0542 13.8184 39.0462 13.8263 39.1337 13.9059C39.1893 13.9695 39.2291 14.216 39.2291 14.5181C39.2291 14.8998 39.2052 15.0032 39.1337 14.9634C39.0542 14.9157 39.0542 14.9316 39.1178 15.0191C39.2132 15.1383 39.3086 15.6472 39.237 15.6472C39.1734 15.6472 39.1973 16.7286 39.2609 16.832C39.2927 16.8718 39.2768 16.9274 39.245 16.9513C39.2052 16.9751 39.1973 17.158 39.2291 17.3568C39.2768 17.659 39.2689 17.7146 39.1655 17.6749C39.0701 17.6431 39.0701 17.651 39.1416 17.7464C39.2052 17.818 39.237 18.1122 39.2211 18.5734C39.2132 18.963 39.237 19.3288 39.2689 19.3844C39.3166 19.464 39.2927 19.4799 39.1893 19.4322C39.078 19.3924 39.0701 19.4083 39.1257 19.4799C39.1734 19.5355 39.2291 19.7343 39.245 19.9251C39.2689 20.2035 39.2529 20.2512 39.1496 20.2194C39.0542 20.1796 39.0462 20.1875 39.1337 20.2671C39.1893 20.3307 39.2291 20.5772 39.2291 20.8793C39.2291 21.261 39.2052 21.3644 39.1337 21.3246C39.0542 21.2769 39.0542 21.2928 39.1178 21.3803C39.2132 21.4995 39.3086 22.0084 39.237 22.0084C39.1734 22.0084 39.1973 23.0899 39.2609 23.1932C39.2927 23.233 39.2768 23.2886 39.245 23.3125C39.2052 23.3363 39.1973 23.5192 39.2291 23.718C39.2768 24.0361 39.2689 24.0758 39.1575 24.0361C39.0542 23.9963 39.0462 24.0043 39.1337 24.0838C39.1973 24.1554 39.2291 24.4496 39.2291 24.9744C39.2291 25.5787 39.2052 25.7457 39.1337 25.6979C39.0542 25.6502 39.0542 25.6661 39.1337 25.7536C39.1814 25.8093 39.2291 25.9365 39.2291 26.0319C39.2291 26.1671 39.1893 26.2068 39.0701 26.183C38.9826 26.1671 38.911 26.175 38.911 26.2068C38.911 26.2387 38.5135 26.2625 38.0364 26.2625C37.5513 26.2625 37.1617 26.2307 37.1617 26.1909C37.1617 26.1512 37.106 26.1671 37.0424 26.2227C36.947 26.3023 36.9232 26.3023 36.9232 26.2227C36.9232 26.1512 36.8993 26.1432 36.8198 26.2148C36.7403 26.2784 36.6846 26.2705 36.621 26.2068C36.5494 26.1353 36.5256 26.1353 36.5256 26.2227C36.5256 26.3102 36.5017 26.3102 36.4302 26.2387C36.3666 26.175 36.3109 26.1671 36.2314 26.2307C36.1757 26.2864 36.128 26.2864 36.128 26.2466C36.128 26.2068 36.0723 26.1671 36.0087 26.1671C35.9451 26.1671 35.8895 26.2068 35.8895 26.2466C35.8895 26.2864 35.8338 26.2784 35.7702 26.2227C35.6748 26.1432 35.6509 26.1432 35.6509 26.2227C35.6509 26.3023 35.6271 26.3023 35.5316 26.2227C35.468 26.1671 35.4124 26.1512 35.4124 26.1909C35.4124 26.2307 35.2851 26.2625 35.1341 26.2625C34.983 26.2625 34.8558 26.2307 34.8558 26.1909C34.8558 26.1512 34.8001 26.1671 34.7365 26.2227C34.6411 26.3023 34.6172 26.3023 34.6172 26.2227C34.6172 26.1432 34.5934 26.1432 34.4979 26.2227C34.4105 26.2943 34.3787 26.2943 34.3787 26.2307C34.3787 26.175 34.3389 26.1591 34.2833 26.1909C34.1401 26.2784 33.9016 26.2864 33.9016 26.2068C33.9016 26.1671 33.8618 26.1591 33.8062 26.1909C33.6869 26.2705 33.3211 26.2705 33.2018 26.1909C33.1462 26.1591 33.1064 26.1671 33.1064 26.2068C33.1064 26.2466 33.019 26.2705 32.9076 26.2625C32.7963 26.2466 32.7248 26.2784 32.7327 26.3261C32.7407 26.3818 32.685 26.4136 32.6134 26.4136C32.526 26.4056 32.5021 26.4454 32.5339 26.5249C32.5657 26.6124 32.5419 26.6362 32.4385 26.5965C32.351 26.5647 32.3192 26.5726 32.351 26.6283C32.4146 26.7237 32.0807 27.0338 31.9853 26.9702C31.9455 26.9463 31.9376 26.994 31.9694 27.0656C32.0091 27.169 31.9932 27.1928 31.8898 27.1531C31.8183 27.1292 31.7626 27.1292 31.7626 27.161C31.7944 27.336 31.7388 27.4234 31.6434 27.3916C31.5638 27.3598 31.54 27.3837 31.5718 27.4632C31.6115 27.5666 31.5082 27.6143 31.3332 27.5825C31.2935 27.5745 31.2855 27.6063 31.3173 27.6461C31.381 27.7574 31.0549 28.0675 30.9436 28.0039C30.888 27.9721 30.88 27.98 30.9118 28.0436C30.9754 28.1391 29.7509 29.4034 29.5919 29.4034C29.5442 29.4034 29.5203 29.4272 29.5521 29.4511C29.576 29.4829 29.3772 29.7214 29.0989 29.9918C28.3037 30.7631 28.3673 30.7313 28.1049 30.453C27.9777 30.3178 27.8425 30.2383 27.8107 30.2621C27.7789 30.2939 27.7789 30.278 27.8107 30.2224C27.8425 30.1667 27.7948 30.0872 27.6994 30.0395C27.6119 29.9918 27.5563 29.9202 27.5801 29.8725C27.6119 29.8327 27.604 29.8089 27.5642 29.8168C27.4768 29.8486 26.3476 28.7354 26.3476 28.6241C26.3476 28.5684 26.2999 28.5366 26.2522 28.5446C26.1966 28.5605 26.1568 28.5207 26.1727 28.4651C26.1807 28.4174 26.1568 28.3776 26.125 28.3856C26.0375 28.4174 25.2344 27.6143 25.2344 27.5029C25.2344 27.4552 25.2026 27.4234 25.1629 27.4314C25.1311 27.4473 24.821 27.1769 24.487 26.843C23.9622 26.3182 23.8429 26.2307 23.6441 26.2546C23.509 26.2705 23.4294 26.2466 23.4533 26.2068C23.4851 26.1591 23.4294 26.1671 23.334 26.2148C23.2068 26.2864 23.167 26.2864 23.167 26.2068C23.167 26.1353 23.1432 26.1353 23.0716 26.2068C23.008 26.2705 22.9523 26.2784 22.8728 26.2148C22.7933 26.1432 22.7695 26.1512 22.7695 26.2227C22.7695 26.3023 22.7456 26.3023 22.6502 26.2227C22.5866 26.1671 22.5309 26.1512 22.5309 26.1909C22.5309 26.2784 21.3302 26.2784 21.1951 26.1909C21.1394 26.1591 21.0996 26.1591 21.0996 26.1989C21.0996 26.2705 20.4317 26.2625 20.3124 26.183C20.2647 26.1591 20.225 26.175 20.225 26.2307C20.225 26.2943 20.2011 26.3023 20.1216 26.2307C20.058 26.183 19.9864 26.1671 19.9626 26.1989C19.8831 26.2784 19.5093 26.2784 19.5093 26.1989C19.5093 26.1671 19.4696 26.1591 19.4219 26.1909C19.3106 26.2546 18.5552 26.2784 18.5552 26.2148C18.5552 26.1909 18.4995 26.1671 18.4359 26.1671C18.3723 26.1671 18.3166 26.1909 18.3166 26.2148C18.3166 26.2784 17.8554 26.2625 17.7839 26.1989C17.76 26.1671 17.6805 26.1909 17.6169 26.2466C17.5135 26.3182 17.5056 26.3182 17.5533 26.2387C17.5851 26.1909 17.5771 26.1432 17.5374 26.1432C17.4181 26.1432 17.4658 25.8808 17.601 25.7616C17.6646 25.6979 17.6805 25.6741 17.6248 25.6979C17.4897 25.7695 17.4022 25.5787 17.5294 25.4992C17.593 25.4594 17.601 25.4276 17.5533 25.4276C17.4579 25.4276 17.4579 25.038 17.5533 24.8789C17.5851 24.8312 17.5692 24.7915 17.5135 24.7915C17.4499 24.7915 17.4499 24.7597 17.5215 24.6722C17.601 24.5768 17.601 24.5529 17.5215 24.5529C17.4499 24.5529 17.4499 24.5211 17.5294 24.4178C17.6248 24.2985 17.6248 24.2905 17.5215 24.3541C17.4181 24.4178 17.4181 24.4098 17.5135 24.2905C17.593 24.1872 17.593 24.1554 17.5215 24.1554C17.442 24.1554 17.442 24.1315 17.5215 24.0361C17.601 23.9407 17.601 23.9168 17.5135 23.9089C17.4181 23.9089 17.4181 23.9009 17.5135 23.8611C17.601 23.8293 17.601 23.8055 17.5135 23.7578C17.434 23.7021 17.434 23.6624 17.5135 23.5749C17.5851 23.4874 17.5851 23.4397 17.5135 23.4C17.4499 23.3523 17.4579 23.3204 17.5294 23.2727C17.593 23.233 17.601 23.2012 17.5612 23.2012C17.5135 23.2012 17.4738 23.1296 17.4738 23.0501C17.4738 22.9626 17.5135 22.9149 17.5612 22.9467C17.601 22.9706 17.593 22.9308 17.5294 22.8593C17.442 22.7479 17.442 22.7241 17.5294 22.7241C17.6169 22.7241 17.6169 22.7082 17.5215 22.6446C17.434 22.5889 17.434 22.5651 17.5056 22.5651C17.5692 22.5651 17.5851 22.5253 17.5533 22.4696C17.4579 22.3186 17.4658 21.6904 17.5533 21.6904C17.6089 21.6904 17.6169 21.6665 17.5612 21.6268C17.4658 21.5632 17.4579 20.5851 17.5453 20.434C17.5851 20.3784 17.5692 20.3386 17.5135 20.3386C17.4499 20.3386 17.4499 20.3068 17.5215 20.2194C17.601 20.1239 17.601 20.1001 17.5135 20.0921C17.4181 20.0921 17.4181 20.0842 17.5135 20.0444C17.601 20.0126 17.601 19.9888 17.5135 19.9411C17.434 19.8854 17.434 19.8456 17.5135 19.7582C17.5851 19.6707 17.5851 19.623 17.5135 19.5832C17.4499 19.5355 17.4579 19.5037 17.5294 19.456C17.593 19.4163 17.601 19.3844 17.5612 19.3844C17.5135 19.3844 17.4738 19.3129 17.4738 19.2334C17.4738 19.1459 17.5135 19.0982 17.5612 19.13C17.601 19.1539 17.593 19.1141 17.5294 19.0425C17.442 18.9312 17.442 18.9074 17.5294 18.9074C17.6169 18.9074 17.6169 18.8915 17.5215 18.8278C17.434 18.7722 17.434 18.7483 17.5056 18.7483C17.5692 18.7483 17.5851 18.7086 17.5533 18.6529C17.4579 18.5018 17.4658 17.8737 17.5533 17.8737C17.6089 17.8737 17.6169 17.8498 17.5612 17.81C17.4658 17.7464 17.4579 16.7684 17.5453 16.6173C17.5851 16.5617 17.5692 16.5219 17.5135 16.5219C17.4499 16.5219 17.4499 16.4901 17.5215 16.4026C17.601 16.3072 17.601 16.2834 17.5135 16.2754C17.4181 16.2754 17.4181 16.2675 17.5135 16.2277C17.601 16.1959 17.601 16.172 17.5135 16.1243C17.434 16.0687 17.434 16.0289 17.5135 15.9414C17.5851 15.854 17.5851 15.8063 17.5135 15.7665C17.4499 15.7188 17.4579 15.687 17.5294 15.6393C17.593 15.5995 17.601 15.5677 17.5612 15.5677C17.5135 15.5677 17.4738 15.4962 17.4738 15.4166C17.4738 15.3292 17.5135 15.2815 17.5612 15.3133C17.601 15.3371 17.593 15.2974 17.5294 15.2258C17.442 15.1145 17.442 15.0906 17.5294 15.0906C17.6169 15.0906 17.6169 15.0747 17.5215 15.0111C17.434 14.9555 17.434 14.9316 17.5056 14.9316C17.5692 14.9316 17.5851 14.8918 17.5533 14.8362C17.4579 14.6851 17.4658 14.0569 17.5533 14.0569C17.6089 14.0569 17.6169 14.0331 17.5612 13.9933C17.4658 13.9297 17.4579 12.9517 17.5453 12.8006C17.5851 12.7449 17.5692 12.7052 17.5135 12.7052C17.4499 12.7052 17.4499 12.6734 17.5215 12.5859C17.601 12.4905 17.601 12.4666 17.5135 12.4587C17.4181 12.4587 17.4181 12.4507 17.5135 12.411C17.601 12.3792 17.601 12.3553 17.5135 12.3076C17.434 12.2519 17.434 12.2122 17.5135 12.1247C17.5851 12.0373 17.5851 11.9895 17.5135 11.9498C17.4499 11.9021 17.4579 11.8703 17.5294 11.8226C17.593 11.7828 17.601 11.751 17.5612 11.751C17.5135 11.751 17.4738 11.6794 17.4738 11.5999C17.4738 11.5124 17.5135 11.4647 17.5612 11.4965C17.601 11.5204 17.593 11.4806 17.5294 11.4091C17.442 11.2978 17.442 11.2739 17.5294 11.2739C17.6169 11.2739 17.6169 11.258 17.5215 11.1944C17.434 11.1387 17.434 11.1149 17.5056 11.1149C17.5692 11.1149 17.5851 11.0751 17.5533 11.0195C17.4579 10.8684 17.4658 10.2402 17.5533 10.2402C17.6089 10.2402 17.6169 10.2164 17.5612 10.1766C17.4658 10.113 17.4579 9.13495 17.5453 8.98387C17.5851 8.92821 17.5692 8.88845 17.5135 8.88845C17.4499 8.88845 17.4499 8.85665 17.5215 8.76918C17.601 8.67376 17.601 8.64991 17.5135 8.64991C17.4181 8.64991 17.4181 8.634 17.5135 8.57834C17.601 8.52268 17.601 8.50678 17.5135 8.47497C17.4181 8.44317 17.4181 8.41931 17.5135 8.30799C17.593 8.20462 17.593 8.17282 17.5215 8.17282C17.4499 8.17282 17.4499 8.14101 17.5294 8.03764C17.6248 7.92632 17.6248 7.91837 17.5374 7.96608C17.4499 8.02174 17.442 7.99788 17.5135 7.86271C17.5851 7.73548 17.5851 7.69572 17.5135 7.69572C17.4499 7.69572 17.4579 7.65597 17.5294 7.56055C17.6248 7.44128 17.6248 7.43332 17.5215 7.49694C17.4181 7.56055 17.4181 7.5526 17.5135 7.43332C17.593 7.32995 17.593 7.29815 17.5215 7.29815C17.442 7.29815 17.442 7.27429 17.5215 7.17888C17.601 7.08346 17.601 7.0596 17.5135 7.0596C17.434 7.0596 17.434 7.03575 17.5056 6.96419C17.5692 6.90057 17.5771 6.84491 17.5135 6.7654C17.4579 6.70974 17.4579 6.66203 17.4976 6.66203C17.5374 6.66203 17.5771 6.60637 17.5771 6.54276C17.5771 6.47914 17.5374 6.42348 17.4976 6.42348C17.4579 6.42348 17.4738 6.35987 17.5294 6.28831C17.6248 6.16903 17.6248 6.16108 17.5215 6.2247C17.4181 6.28831 17.4181 6.28036 17.5135 6.16108C17.593 6.05771 17.593 6.02591 17.5215 6.02591C17.442 6.02591 17.442 6.00205 17.5215 5.90663C17.601 5.81122 17.601 5.78736 17.5215 5.78736C17.4499 5.78736 17.4499 5.75556 17.5294 5.65219C17.593 5.57267 17.601 5.54086 17.5453 5.57267C17.4499 5.63628 17.4579 5.39774 17.5612 5.23075C17.5851 5.18305 17.5612 5.15124 17.5056 5.14329C17.426 5.14329 17.426 5.12739 17.5056 5.09558C17.5533 5.07968 17.5771 5.01607 17.5453 4.96836C17.3942 4.72981 17.5453 4.45151 17.7362 4.61054C17.8157 4.67415 17.8395 4.6662 17.8395 4.58668ZM22.0538 30.6756C22.0538 30.7154 22.0379 30.7551 22.022 30.7551C21.9982 30.7551 21.9584 30.7154 21.9346 30.6756C21.9107 30.6279 21.9266 30.5961 21.9664 30.5961C22.0141 30.5961 22.0538 30.6279 22.0538 30.6756Z" fill="white"/>
<path d="M25.0436 4.8967C25.0197 4.93646 25.0515 4.96826 25.1151 4.96826C25.1787 4.96826 25.2105 4.93646 25.1867 4.8967C25.1628 4.86489 25.131 4.83308 25.1151 4.83308C25.0992 4.83308 25.0674 4.86489 25.0436 4.8967Z" fill="white"/>
<path d="M27.5881 4.8967C27.5643 4.93646 27.5961 4.96826 27.6597 4.96826C27.7233 4.96826 27.7551 4.93646 27.7312 4.8967C27.7074 4.86489 27.6756 4.83308 27.6597 4.83308C27.6438 4.83308 27.612 4.86489 27.5881 4.8967Z" fill="white"/>
<path d="M21.9346 25.9763C21.9107 26.0161 21.9187 26.0717 21.9584 26.0956C21.9982 26.1194 22.03 26.0876 22.03 26.024C22.03 25.8889 22.0061 25.873 21.9346 25.9763Z" fill="white"/>
<path d="M37.5274 26.0081C37.5513 26.0876 37.599 26.1273 37.6229 26.1035C37.6467 26.0796 37.6229 26.016 37.5672 25.9604C37.4877 25.8888 37.4797 25.8967 37.5274 26.0081Z" fill="white"/>
<path d="M28.1368 30.3575C28.1606 30.3973 28.2004 30.437 28.2242 30.437C28.2401 30.437 28.256 30.3973 28.256 30.3575C28.256 30.3098 28.2163 30.278 28.1686 30.278C28.1288 30.278 28.1129 30.3098 28.1368 30.3575Z" fill="white"/>
<path d="M43.8331 3.93458C43.7297 4.0618 43.7376 4.06975 43.8649 3.96638C43.9364 3.91072 44 3.84711 44 3.83121C44 3.7676 43.9364 3.80735 43.8331 3.93458Z" fill="white"/>
</svg>
